<?xml version="1.0" encoding="utf-8"?>
<svg version="1.1" id="Слой_1" xmlns="http://www.w3.org/2000/svg" xmlns:xlink="http://www.w3.org/1999/xlink" x="0px" y="0px"
	 viewBox="0 0 39.8 39.8" style="enable-background:new 0 0 39.8 39.8;" xml:space="preserve">
<g>
	<path class="st0" d="M11.7,10.7h2.6V8.5H17v2.3h2.6V8.5h2.6v2.3c3,0.3,5.3,2.4,5.3,5.1c0,1.5-0.7,2.8-1.9,3.7
		c1.5,0.9,2.6,2.5,2.6,4.2c0,2.8-2.6,5.1-5.9,5.1v2.3h-2.6v-2.3H17v2.3h-2.6v-2.3h-2.6l0.7-2.3h2V13h-2.6V10.7 M17,20.9v5.7h5.3
		c1.8,0,3.3-1.3,3.3-2.8s-1.5-2.8-3.3-2.8H17 M17,13v5.7h4.6c1.8,0,3.3-1.3,3.3-2.8S23.5,13,21.6,13l0,0H17z"/>
	<circle class="st1" cx="20" cy="19.8" r="18.1"/>
</g>
</svg>
