<?xml version="1.0" encoding="utf-8"?>
<svg version="1.1" xmlns="http://www.w3.org/2000/svg" xmlns:xlink="http://www.w3.org/1999/xlink" x="0px" y="0px" viewBox="0 0 1000 1000" enable-background="new 0 0 1000 1000" xml:space="preserve">
<g><g transform="translate(0.000000,511.000000) scale(0.100000,-0.100000)"><path d="M4611.1,4994.7c-325.2-30.7-607.5-81.8-930.6-163.6c-427.5-110.4-531.8-149.3-529.7-196.3c0-22.5,26.6-175.9,55.2-345.7c79.8-452,116.6-809.9,130.9-1251.7l12.3-394.7h1650.6h1648.5l24.5,466.3c26.6,523.6,63.4,863.1,137.1,1288.5c28.6,161.6,51.1,296.6,51.1,300.7c0,14.3-310.9,104.3-556.3,163.6C5803.5,4982.4,5079.5,5039.7,4611.1,4994.7z M5204.2,3828.9v-961.3h-194.3h-194.3v210.7c0,114.6-6.1,546.1-14.3,961.3l-12.3,750.6h206.6h208.6V3828.9z M4333,4581.6c28.6-351.8,53.2-1000.1,53.2-1349.9v-364.1h-182h-182l-12.3,231.1c-36.8,734.3-59.3,1114.7-81.8,1331.5c-18.4,190.2-18.4,243.4,2,251.6c22.5,8.2,312.9,61.4,368.2,65.5C4312.5,4749.3,4324.8,4690,4333,4581.6z M5961,4722.7c122.7-22.5,132.9-28.6,128.8-75.7c-28.6-272-69.5-975.6-81.8-1333.5l-12.3-445.9h-192.3h-190.2v180c0,259.8,36.8,1358.1,53.2,1544.2l12.3,157.5h75.7C5795.4,4747.2,5887.4,4737,5961,4722.7z"/><path d="M3343,2305.1c0-139.1-53.2-580.9-92-764.9c-16.4-83.9-28.6-155.4-24.5-159.5c16.4-14.3,619.7-108.4,924.5-141.1c450-49.1,1352-49.1,1789.6-2.1c265.9,30.7,820.2,112.5,832.4,124.8c2,2-14.3,104.3-34.8,227c-34.8,204.5-81.8,638.1-81.8,767v51.1H4999.7H3343V2305.1z M3682.5,2016.8c16.4-12.3,83.9-34.8,151.4-47c67.5-14.3,122.7-30.7,120.7-38.9c0-8.2-51.1-55.2-112.5-106.4l-110.4-92l4.1-159.5c6.1-180,10.2-177.9-147.3-63.4l-108.4,77.7l14.3,132.9c6.1,73.6,18.4,208.6,24.5,298.6c18.4,274.1,24.5,284.3,83.9,143.2C3629.4,2094.5,3666.2,2029,3682.5,2016.8z M6509.1,1722.2l16.4-145.2l-126.8-90c-69.6-51.1-130.9-92-135-92c-4.1,0-4.1,71.6,0,159.5l8.2,159.6l-114.6,104.3c-63.4,59.3-114.5,108.4-114.5,114.5c0,4.1,65.5,20.5,145.2,32.7c137.1,24.5,147.3,30.7,173.9,96.1c16.4,38.8,45,104.3,63.4,147.2l32.7,75.7l18.4-208.6C6484.6,1959.5,6498.9,1800,6509.1,1722.2z M5110.2,2027c28.6-71.6,36.8-75.7,149.3-87.9c206.6-24.5,204.5-20.5,81.8-157.5l-110.5-120.7l26.6-157.5c16.4-85.9,24.5-161.6,18.4-165.7c-4.1-4.1-69.5,24.5-143.2,65.4l-132.9,73.6l-132.9-73.6c-73.6-40.9-139.1-69.5-145.2-63.4c-6.1,6.2,2,81.8,18.4,167.7l30.7,157.5l-100.2,110.5c-55.2,61.4-100.2,118.6-100.2,128.9c0,10.2,65.4,24.5,145.2,32.7l143.2,14.3l73.6,157.5l71.6,155.4l38.9-81.8C5063.1,2137.4,5093.8,2067.9,5110.2,2027z"/><path d="M2324.5,1300.9c-61.4-43-57.3-102.3,12.3-139.1c96.1-49.1,689.3-212.7,1006.3-276.1c1237.4-249.5,2528-216.8,3722.4,92c274.1,71.6,599.3,173.8,630,198.4c75.7,59.3-26.6,169.8-143.2,151.4c-36.8-6.1-229.1-51.1-425.4-102.3c-848.8-216.8-1804-312.9-2587.3-261.8c-621.8,40.9-1071.7,112.5-1734.4,280.2c-200.4,49.1-380.4,90-398.8,90C2385.8,1333.6,2349,1319.3,2324.5,1300.9z"/><path d="M6300.5,615.7c-779.2-145.2-1787.6-157.5-2650.7-30.7l-317,47l-49.1-42.9c-85.9-77.7-124.8-190.2-124.8-380.4c0-390.6,153.4-687.2,454.1-873.3c65.4-40.9,118.6-83.9,118.6-98.2s43-112.5,94.1-216.8c79.8-161.6,126.8-222.9,282.2-378.4c151.4-149.3,220.9-202.5,360-272c171.8-83.9,394.7-145.2,531.8-145.2c137,0,360,61.4,531.8,145.2c141.1,69.5,208.6,122.7,360,272c153.4,153.4,202.5,218.9,280.2,378.4c53.2,104.3,96.1,202.5,96.1,216.8s53.2,57.3,118.6,98.2c300.7,186.1,454.1,482.7,454.1,873.3c0,202.5-38.9,308.9-141.1,394.7C6621.6,668.9,6586.9,668.9,6300.5,615.7z"/><path d="M6216.7-1658.6c-4.1-14.3-40.9-153.4-79.8-310.9c-216.8-863.1-468.4-1497.2-897.9-2256c-169.8-300.7-210.7-347.7-276.1-312.9c-85.9,47-531.8,895.8-728.1,1392.8c-141.1,357.9-296.6,852.9-392.7,1251.7c-34.8,141.1-69.5,241.3-83.9,241.3c-75.7,0-869.3-323.1-1069.7-435.6c-368.2-204.5-666.8-466.3-850.8-742.4c-208.6-312.9-370.2-807.9-390.7-1200.6c-10.2-190.2-8.2-225,22.5-257.7c53.2-57.3,552.2-216.8,902-286.3c754.7-151.3,1499.2-212.7,2607.8-214.8c1194.5,0,2024.8,71.6,2798,245.4c270,59.3,693.4,200.5,746.5,247.5c77.7,71.6,18.4,574.7-112.5,942.9c-130.9,374.3-284.3,619.7-533.8,857c-253.6,241.3-519.5,405-959.3,589C6488.7-1724.1,6224.9-1632.1,6216.7-1658.6z"/><path d="M4678.6-2442c-12.3-34.8,45-386.6,77.7-472.5c16.4-45,28.6-47,243.4-47c214.8,0,227,2,243.4,47c32.7,85.9,90,437.7,77.7,472.5c-12.3,28.6-55.2,32.7-321.1,32.7C4733.8-2409.3,4690.9-2413.4,4678.6-2442z"/><path d="M4764.5-3108.8c-4.1-14.3-32.7-126.8-59.3-251.6l-51.1-225l128.8-245.4c71.6-135,147.3-276.1,171.8-315l40.9-67.5l57.3,87.9c30.7,49.1,108.4,192.3,173.8,315l118.6,225l-55.2,245.4l-57.3,245.4l-229.1,6.1C4830-3084.2,4772.7-3090.4,4764.5-3108.8z"/></g></g>
</svg>