<?xml version="1.0" encoding="utf-8"?>
<!-- Generator: Adobe Illustrator 23.1.0, SVG Export Plug-In . SVG Version: 6.00 Build 0)  -->
<svg version="1.1" id="Layer_1" xmlns="http://www.w3.org/2000/svg" xmlns:xlink="http://www.w3.org/1999/xlink" x="0px" y="0px"
	 viewBox="0 0 24 24" style="enable-background:new 0 0 24 24;" xml:space="preserve">
<style type="text/css">
	.st0{fill:none;}
	.st1{fill-rule:evenodd;clip-rule:evenodd;}
</style>
<g transform="translate(0,4728)">
	<g>
		<path class="st0" d="M3-4725h18v18H3V-4725z"/>
		<path class="st1" d="M13-4723h6c1.1,0,2,0.9,2,2v2c0,1.1-0.9,2-2,2h-8v-4C11-4722.1,11.9-4723,13-4723z M12-4721v2h2v-2H12z
			 M15-4721v2h2v-2H15z M18-4721v2h2v-2H18z M8-4715c1.1,0,2-0.9,2-2s-0.9-2-2-2s-2,0.9-2,2S6.9-4715,8-4715z M8-4714
			c-1.7,0-5,0.9-5,2.8v2.3h10v-2.3C13-4713.1,9.7-4714,8-4714z"/>
	</g>
</g>
</svg>
