<?xml version="1.0" encoding="utf-8"?>
<!-- Generator: Adobe Illustrator 25.2.1, SVG Export Plug-In . SVG Version: 6.00 Build 0)  -->
<svg version="1.1" id="Слой_1" xmlns="http://www.w3.org/2000/svg" xmlns:xlink="http://www.w3.org/1999/xlink" x="0px" y="0px"
	 viewBox="0 0 24 24" style="enable-background:new 0 0 24 24;" xml:space="preserve">
<path d="M14.8,15c1,0,1.8,0.8,1.8,1.8l0,1c0.1,2.2-1.5,3.3-4.4,3.3c-2.9,0-4.6-1.1-4.6-3.3v-1c0-1,0.8-1.8,1.8-1.8H14.8z M3.8,10
	l4.4,0C8,10.3,8,10.7,8,11c0,1.1,0.5,2.1,1.2,2.8L9.4,14l-0.1,0c-0.3,0-0.6,0-0.9,0.1c-0.9,0.3-1.5,1-1.8,1.9l0,0
	C3.7,16,2,14.9,2,12.8v-1C2,10.8,2.8,10,3.8,10z M20.2,10c1,0,1.8,0.8,1.8,1.8l0,1c0.1,2.2-1.5,3.3-4.4,3.3l-0.2,0
	c-0.2-0.9-0.9-1.5-1.7-1.8c-0.2-0.1-0.5-0.1-0.7-0.2l-0.2,0l-0.1,0c0.8-0.7,1.4-1.8,1.4-3c0-0.3,0-0.7-0.1-1L20.2,10z M12,8
	c1.7,0,3,1.3,3,3c0,1.7-1.3,3-3,3s-3-1.3-3-3C9,9.3,10.3,8,12,8z M6.5,3c1.7,0,3,1.3,3,3s-1.3,3-3,3s-3-1.3-3-3S4.8,3,6.5,3z
	 M17.5,3c1.7,0,3,1.3,3,3s-1.3,3-3,3s-3-1.3-3-3S15.8,3,17.5,3z"/>
</svg>
