<?xml version="1.0" encoding="utf-8"?>
<!-- Generator: Adobe Illustrator 25.2.1, SVG Export Plug-In . SVG Version: 6.00 Build 0)  -->
<svg version="1.1" id="Слой_1" xmlns="http://www.w3.org/2000/svg" xmlns:xlink="http://www.w3.org/1999/xlink" x="0px" y="0px"
	 viewBox="0 0 24 24" style="enable-background:new 0 0 24 24;" xml:space="preserve">
<path d="M14.8,15c1,0,1.8,0.8,1.8,1.8l0,1c0.1,2.2-1.5,3.3-4.4,3.3c-2.9,0-4.6-1.1-4.6-3.3v-1c0-1,0.8-1.8,1.8-1.8H14.8z M14.8,16.5
	H9.2c-0.1,0-0.2,0.1-0.2,0.2v1c0,1.2,0.9,1.8,3.1,1.8c2.2,0,3-0.6,2.9-1.8v-1C15,16.6,14.9,16.5,14.8,16.5z M3.8,10l4.4,0
	C8,10.3,8,10.7,8,11c0,0.2,0,0.3,0,0.5l-4.3,0c-0.1,0-0.2,0.1-0.2,0.2v1c0,1.2,0.9,1.8,3.1,1.8c0.5,0,0.9,0,1.2-0.1
	c-0.6,0.4-1,0.9-1.2,1.6l0,0C3.7,16,2,14.9,2,12.8v-1C2,10.8,2.8,10,3.8,10z M20.2,10c1,0,1.8,0.8,1.8,1.8l0,1
	c0.1,2.2-1.5,3.3-4.4,3.3l-0.2,0c-0.2-0.7-0.6-1.2-1.2-1.6c0.4,0.1,0.8,0.1,1.4,0.1c2.2,0,3-0.6,2.9-1.8v-1c0-0.1-0.1-0.2-0.2-0.2
	l-4.3,0c0-0.2,0-0.3,0-0.5c0-0.3,0-0.7-0.1-1L20.2,10z M12,8c1.7,0,3,1.3,3,3c0,1.7-1.3,3-3,3s-3-1.3-3-3C9,9.3,10.3,8,12,8z
	 M12,9.5c-0.8,0-1.5,0.7-1.5,1.5s0.7,1.5,1.5,1.5s1.5-0.7,1.5-1.5S12.8,9.5,12,9.5z M6.5,3c1.7,0,3,1.3,3,3s-1.3,3-3,3s-3-1.3-3-3
	S4.8,3,6.5,3z M17.5,3c1.7,0,3,1.3,3,3s-1.3,3-3,3s-3-1.3-3-3S15.8,3,17.5,3z M6.5,4.5C5.7,4.5,5,5.2,5,6s0.7,1.5,1.5,1.5S8,6.8,8,6
	S7.3,4.5,6.5,4.5z M17.5,4.5C16.7,4.5,16,5.2,16,6s0.7,1.5,1.5,1.5S19,6.8,19,6S18.3,4.5,17.5,4.5z"/>
</svg>
