<?xml version="1.0" encoding="iso-8859-1"?>
<!-- Generator: Adobe Illustrator 19.0.0, SVG Export Plug-In . SVG Version: 6.00 Build 0)  -->
<svg version="1.1" id="Capa_1" xmlns="http://www.w3.org/2000/svg" xmlns:xlink="http://www.w3.org/1999/xlink" x="0px" y="0px"
	 viewBox="0 0 512 512" style="enable-background:new 0 0 512 512;" xml:space="preserve">
<g>
	<g>
		<path d="M416,0H96C78.357,0,64,14.357,64,32v448c0,17.643,14.357,32,32,32h320c17.643,0,32-14.357,32-32V32
			C448,14.357,433.643,0,416,0z M181.333,469.333h-42.667c-5.888,0-10.667-4.779-10.667-10.667S132.779,448,138.667,448h42.667
			c5.888,0,10.667,4.779,10.667,10.667S187.221,469.333,181.333,469.333z M373.333,469.333h-42.667
			c-5.888,0-10.667-4.779-10.667-10.667S324.779,448,330.667,448h42.667c5.888,0,10.667,4.779,10.667,10.667
			S379.221,469.333,373.333,469.333z M405.333,416c0,5.888-4.779,10.667-10.667,10.667H117.333c-5.888,0-10.667-4.779-10.667-10.667
			V53.333c0-5.888,4.779-10.667,10.667-10.667h277.333c5.888,0,10.667,4.779,10.667,10.667V416z"/>
	</g>
</g>
<g>
</g>
<g>
</g>
<g>
</g>
<g>
</g>
<g>
</g>
<g>
</g>
<g>
</g>
<g>
</g>
<g>
</g>
<g>
</g>
<g>
</g>
<g>
</g>
<g>
</g>
<g>
</g>
<g>
</g>
</svg>
