<?xml version="1.0" encoding="utf-8"?>
<!-- Generator: Adobe Illustrator 24.2.3, SVG Export Plug-In . SVG Version: 6.00 Build 0)  -->
<svg version="1.1" id="Слой_1" xmlns="http://www.w3.org/2000/svg" xmlns:xlink="http://www.w3.org/1999/xlink" x="0px" y="0px"
	 viewBox="0 0 336 336" xml:space="preserve">
<style type="text/css">
	.heart-icon1{fill:#E81224;}
	.heart-icon2{fill:#EF6950;}
</style>
<g>
	<path class="heart-icon1" d="M286.3,68.7L286.3,68.7c-31.4-31.4-82.3-31.4-113.7,0l-4.7,4.7l-4.7-4.7c-31.4-31.4-82.3-31.4-113.7,0l0,0
		c-31.4,31.4-31.4,82.3,0,113.7l4.7,4.7l39.8,39.8l73.8,73.8l86.5-86.5l31.8-31.8C317.7,151,317.7,100.1,286.3,68.7z"/>
	<path d="M168,314L43,189C8,154,8,97,43,62c34.3-34.3,89.8-35,125-1.9C203.1,27,258.6,27.7,293,62v0c35,35,35,92,0,127L168,314z
		 M106.5,54.6c-18.2,0-36.3,6.9-50.2,20.8c-27.7,27.7-27.7,72.7,0,100.4L168,287.4l111.7-111.7c27.7-27.7,27.7-72.7,0-100.4l0,0
		c-13.4-13.4-31.2-20.8-50.2-20.8c-19,0-36.8,7.4-50.2,20.8L168,86.6l-11.3-11.3C142.9,61.5,124.7,54.6,106.5,54.6z"/>
</g>
<g>
	<path class="heart-icon2" d="M139.2,202.9c-3.1,0-6.3-1.1-8.8-3.4c-0.1-0.1-13.3-12.3-26.5-25.3c-27.3-26.9-30-32.7-30.8-38
		c-1.3-8.2-1.4-27.7-1.4-29.9c0-7.1,5.8-12.9,12.9-13c0,0,0,0,0,0c7.1,0,12.9,5.8,12.9,12.9c0,6.8,0.3,18.6,0.8,24.3
		c5,7.2,29,31,49.6,50c5.2,4.8,5.6,13,0.7,18.3C146.2,201.5,142.7,202.9,139.2,202.9z"/>
</g>
</svg>
