<svg version="1.0" xmlns="http://www.w3.org/2000/svg"
 width="256.000000pt" height="256.000000pt" viewBox="0 0 256.000000 256.000000"
 preserveAspectRatio="xMidYMid meet">
<g transform="translate(0.000000,256.000000) scale(0.100000,-0.100000)">
<path d="M1549 1686 c-57 -20 -106 -64 -134 -119 -24 -49 -25 -58 -25 -232 0
-127 4 -185 12 -193 9 -9 129 -12 478 -12 l465 0 51 24 c59 27 110 85 125 140
6 22 9 87 7 145 -3 99 -5 109 -33 151 -17 24 -52 58 -79 75 l-49 30 -391 2
c-300 2 -399 -1 -427 -11z m267 -257 c25 -50 43 -97 40 -105 -8 -20 -34 -17
-46 6 -8 16 -21 20 -60 20 -40 0 -50 -4 -55 -20 -8 -27 -45 -27 -45 0 0 18 61
148 83 178 20 26 38 9 83 -79z m197 80 c48 -22 71 -93 46 -142 -21 -42 -51
-57 -111 -57 -52 0 -58 2 -62 23 -4 19 -2 158 2 180 3 11 98 8 125 -4z m262 1
c15 -23 -17 -40 -76 -40 -46 0 -59 -3 -59 -15 0 -11 12 -15 45 -15 78 0 121
-64 75 -110 -27 -27 -157 -30 -167 -4 -9 24 15 34 80 34 71 0 76 23 6 28 -77
6 -114 67 -69 112 16 16 33 20 89 20 39 0 73 -5 76 -10z"/>
<path d="M654 1468 c-23 -5 -59 -24 -83 -44 l-41 -36 -34 30 c-73 64 -186 70
-255 14 -46 -37 -51 -38 -51 -13 0 11 -7 27 -16 35 -19 20 -97 21 -113 2 -8
-9 -11 -92 -9 -282 l3 -269 75 0 75 0 5 175 c5 186 11 208 57 229 49 23 95 12
135 -32 1 -1 4 -85 7 -187 l6 -185 75 0 75 0 5 170 c3 110 9 178 18 192 38 67
118 72 174 10 1 -1 4 -85 7 -187 l6 -185 75 0 75 0 3 51 c2 33 -5 74 -18 113
-24 71 -25 126 -6 201 13 50 13 57 -4 90 -45 87 -142 130 -246 108z"/>
<path d="M1160 1461 c-76 -24 -145 -85 -182 -161 -30 -62 -31 -176 -1 -241 25
-56 84 -118 138 -144 62 -30 179 -33 243 -5 28 12 58 30 67 40 15 17 15 21
-10 62 -41 66 -51 71 -96 48 -89 -46 -173 -11 -199 83 -15 53 2 108 46 147 33
29 42 31 93 28 l56 -3 0 75 0 75 -65 2 c-36 1 -76 -2 -90 -6z"/>
</g>
</svg>
