<svg version="1.1" xmlns="http://www.w3.org/2000/svg"
	 viewBox="0 0 230 230" width="230.000000pt" height="230.000000pt">
<style type="text/css">
	.mcads0{fill:#FFFFFF;}
	.mcads1{fill:#E20E41;}
	.mcads2{fill:#F2F3F9;}
</style>
<path class="mcads0" d="M86.1,139.8c-1.5-3.7-2.3-7.7-2.3-11.8c0-3.9,0.7-7.8,2.2-11.5c0-0.1,0-0.1,0.1-0.2c-0.1-0.3-0.2-0.6-0.3-0.9
	c-0.7-2.4-2-4.6-3.6-6.5c-1.6-1.9-3.7-3.4-6-4.4c-2.7-1.1-5.7-1.7-8.7-1.6c-1.4,0-2.9,0.2-4.3,0.6c-1.4,0.4-2.7,0.9-3.9,1.7
	c-1.2,0.7-2.4,1.6-3.4,2.5c-1,0.9-1.9,2-2.7,3.1c-0.7-1.1-1.5-2.1-2.5-3c-1-0.9-2.2-1.8-3.5-2.4c-1.3-0.7-2.8-1.3-4.2-1.7
	c-1.6-0.4-3.2-0.6-4.8-0.6c-1.5,0-2.9,0.2-4.3,0.6c-1.2,0.4-2.4,0.9-3.5,1.5c-1,0.6-2,1.3-2.8,2.2c-0.8,0.8-1.6,1.6-2.3,2.4
	c-0.1-0.6-0.2-1.2-0.4-1.9c-0.2-0.7-0.4-1.4-0.6-2c-0.2-0.6-0.6-1.1-1-1.6c-0.4-0.4-0.9-0.6-1.4-0.6h-6.5c-0.7,0-1.3,0.3-1.8,0.9
	c-0.6,0.6-0.9,1.4-0.9,2.2v42.6c0,0.7,0.2,1.4,0.7,1.9c0.6,0.6,1.3,0.8,2.1,0.8h8.4c0.7,0,1.3-0.2,1.8-0.7c0.5-0.5,0.7-1.2,0.7-1.9
	v-25c0-1.2,0.3-2.3,0.8-3.4c1-2.1,2.7-3.7,4.8-4.5c1-0.4,2.1-0.7,3.3-0.7c1.1,0,2.2,0.2,3.3,0.6c1,0.4,1.8,0.9,2.5,1.6
	c0.7,0.8,1.3,1.6,1.7,2.6c0.4,1.1,0.6,2.3,0.6,3.5v25c-0.1,0.8,0.2,1.5,0.6,2.1c0.6,0.5,1.3,0.8,2.1,0.7H54c0.8,0,1.5-0.2,2.1-0.7
	c0.6-0.6,0.9-1.3,0.8-2.1v-24.6c0-1.2,0.3-2.4,0.8-3.4c0.5-1,1.2-2,2.1-2.8c0.9-0.8,1.9-1.4,2.9-1.9c1.1-0.4,2.2-0.6,3.4-0.6
	c2.1,0,4.2,0.9,5.5,2.6c0.7,0.8,1.2,1.8,1.4,2.8c0.3,1.1,0.5,2.3,0.5,3.5v24.5c0,1.9,1,2.8,3.2,2.8h7.4c0.8,0,1.5-0.2,2.1-0.8
	c0.6-0.6,0.9-1.3,0.9-2.1v-7.1C86.7,141.3,86.4,140.6,86.1,139.8z"/>
<path class="mcads0" d="M129.4,144.5l-4-6.2c-0.4-0.7-1-1.2-1.8-1.6c-0.2,0-0.3-0.1-0.5-0.1h-0.3c-0.2,0-0.4,0-0.5,0.1
	c-0.4,0.1-0.8,0.3-1.1,0.6c-2.2,1.7-4.9,2.6-7.7,2.6c-1.5,0-3-0.3-4.4-0.9c-1.3-0.6-2.5-1.5-3.4-2.5c-1-1.1-1.7-2.4-2.2-3.8
	c-1.1-3-1.1-6.3,0-9.3c0.5-1.4,1.3-2.7,2.3-3.9c0.9-1.1,2.1-2,3.4-2.6c1.4-0.7,2.9-1,4.4-1c1.4,0,2.8,0.2,4.1,0.7l0,0
	c0.9,0.4,2-0.1,2.3-1c0.1-0.2,0.1-0.4,0.1-0.6v-9.5c0-0.9-0.6-1.6-1.5-1.8c-1.6-0.3-3.3-0.5-5-0.5c-3.3,0-6.6,0.6-9.6,1.9
	c-2.9,1.2-5.6,3-7.9,5.2c-9.7,9.8-9.7,25.6,0,35.3c2.3,2.2,4.9,4,7.8,5.3c3,1.3,6.3,2,9.6,1.9c2.6,0,5.3-0.4,7.8-1.3
	c2.4-0.9,4.7-2,6.9-3.4c0.4-0.3,0.8-0.6,1.1-1c0.3-0.4,0.5-0.9,0.5-1.4C129.9,145.4,129.7,144.9,129.4,144.5z"/>
<path class="mcads1" d="M202.4,83.9h-56.3c-11.2,0-20.3,9.1-20.3,20.3c0,0,0,0,0,0v25.1c0,1.7,1.4,3.1,3.1,3.2h73.4
	c11.2,0,20.3-9.1,20.3-20.3c0,0,0,0,0,0v-8C222.6,93,213.6,83.9,202.4,83.9z"/>
<path class="mcads2" d="M148.7,116.9c-0.9-0.5-1.3-1.6-0.8-2.5l7.1-14.1c0.5-0.9,1.6-1.3,2.5-0.9c0.4,0.2,0.7,0.5,0.9,0.9l7,14.1
	c0.2,0.4,0.3,1,0.1,1.4c-0.2,0.5-0.5,0.9-0.9,1.1c-0.3,0.1-0.5,0.2-0.8,0.2c-0.7,0-1.4-0.4-1.7-1l-1.2-2.5h-8.2l-1.3,2.4
	c-0.2,0.5-0.6,0.8-1.1,0.9C149.7,117.1,149.2,117.1,148.7,116.9z M154.4,109.8h4.5l-2.2-4.5L154.4,109.8z"/>
<path class="mcads2" d="M169.7,117.1c-1,0-1.9-0.8-1.9-1.9c0,0,0,0,0,0v-14.1c0-1,0.8-1.9,1.9-1.9h4.7c4.9,0,8.9,4,8.9,8.9
	c0,4.9-4,8.9-8.9,8.9L169.7,117.1z M171.6,113.3h2.8c2.8,0,5.2-2.3,5.2-5.1c0-1.4-0.5-2.7-1.5-3.7c-1-1-2.3-1.5-3.6-1.5h-2.8
	L171.6,113.3z"/>
<path class="mcads2" d="M195.4,113.3c0.4,0,0.9-0.2,1.2-0.5c0.3-0.3,0.5-0.7,0.5-1.2c0-0.4-0.2-0.9-0.5-1.2c-0.3-0.3-0.7-0.5-1.1-0.5
	h-4.7c-3,0-5.4-2.4-5.4-5.4c0-1.4,0.6-2.8,1.6-3.8c1-1,2.4-1.6,3.8-1.6h8.2c1,0,1.9,0.8,1.9,1.9c0,0.5-0.2,1-0.6,1.3
	c-0.4,0.4-0.8,0.5-1.3,0.5h-8.2c-0.9,0-1.6,0.7-1.6,1.6c0,0.4,0.2,0.9,0.5,1.2c0.3,0.3,0.7,0.5,1.2,0.5h4.7c3,0,5.4,2.4,5.4,5.4
	c0,1.4-0.6,2.8-1.6,3.8c-1,1-2.4,1.6-3.8,1.6h-8.2c-0.5,0-1-0.2-1.3-0.5c-0.7-0.7-0.7-1.9,0-2.7c0.4-0.4,0.8-0.6,1.3-0.6
	L195.4,113.3z"/>
</svg>
