<svg id="Layer_1" data-name="Layer 1" xmlns="http://www.w3.org/2000/svg" viewBox="0 0 509.97 86.3"><defs><style>.mediacube-logo-1{fill:#1d1e26;}.mediacube-logo-2{fill:#e20e41;}.mediacube-logo-3{fill:#f2f3f9;}</style></defs><title>mc_logo_22-01</title><path class="mediacube-logo-1" d="M138.72,49.85h0a26.81,26.81,0,0,0-1.78-9.8,24.67,24.67,0,0,0-5-8,23.66,23.66,0,0,0-7.67-5.42,24.12,24.12,0,0,0-9.88-2A23.41,23.41,0,0,0,97,32a24.41,24.41,0,0,0-5,8,27.24,27.24,0,0,0-1.76,9.81A26.71,26.71,0,0,0,92,59.6a24.75,24.75,0,0,0,5,8A23,23,0,0,0,104.62,73a23.57,23.57,0,0,0,9.77,2,23.87,23.87,0,0,0,8.37-1.41,24.15,24.15,0,0,0,6.69-3.75,22.92,22.92,0,0,0,4.86-5.33c.41-.62.79-1.25,1.14-1.88a2.78,2.78,0,0,0-2.16-4.22h-8.73a2.45,2.45,0,0,0-2,1.06,9.9,9.9,0,0,1-2.78,2.55,9.64,9.64,0,0,1-5,1.41,10.24,10.24,0,0,1-3.47-.5,12.14,12.14,0,0,1-3.81-2.12,13.35,13.35,0,0,1-2.68-3,13.14,13.14,0,0,1-1.69-4s0,0,0,0h31.64a4.11,4.11,0,0,0,3.94-3.93m-35.15-5.91s0,0,0,0a12.6,12.6,0,0,1,4-5.87,10.73,10.73,0,0,1,6.88-2.24,9.79,9.79,0,0,1,6.59,2.27,13,13,0,0,1,3.84,5.84s0,0,0,0Z"/><path class="mediacube-logo-1" d="M87.15,61a30.5,30.5,0,0,1-2.3-11.83A31.18,31.18,0,0,1,87,37.64c0-.06,0-.11.07-.17-.08-.3-.16-.61-.25-.91A18.57,18.57,0,0,0,83.22,30a16.88,16.88,0,0,0-6.08-4.39A21.33,21.33,0,0,0,68.47,24a15.54,15.54,0,0,0-4.32.59,17,17,0,0,0-3.94,1.69,18.56,18.56,0,0,0-3.42,2.55A20.5,20.5,0,0,0,54,32a14.21,14.21,0,0,0-2.52-3A18.3,18.3,0,0,0,48,26.56a19.47,19.47,0,0,0-4.26-1.66,18.93,18.93,0,0,0-4.86-.62,15.13,15.13,0,0,0-4.34.59A15.42,15.42,0,0,0,31,26.43a17.52,17.52,0,0,0-2.86,2.18,30.69,30.69,0,0,0-2.3,2.46c-.1-.56-.23-1.22-.4-2A13.69,13.69,0,0,0,24.83,27a5.75,5.75,0,0,0-1-1.64,1.82,1.82,0,0,0-1.43-.67H15.85a2.69,2.69,0,0,0-1.81.87,2.91,2.91,0,0,0-.92,2.2v42.9a2.78,2.78,0,0,0,.69,2,2.73,2.73,0,0,0,2.13.77h8.48a2.4,2.4,0,0,0,1.84-.75A2.64,2.64,0,0,0,27,70.79V45.65a7.63,7.63,0,0,1,.76-3.4,9.75,9.75,0,0,1,2-2.73,9.58,9.58,0,0,1,2.86-1.83A8.42,8.42,0,0,1,35.88,37a9.15,9.15,0,0,1,3.28.57,7.22,7.22,0,0,1,2.55,1.64,7.78,7.78,0,0,1,1.69,2.65A9.83,9.83,0,0,1,44,45.45V70.6a3.05,3.05,0,0,0,.64,2.1,2.69,2.69,0,0,0,2.09.72h8.18A3,3,0,0,0,57,72.68a2.74,2.74,0,0,0,.81-2.13V45.8a7.65,7.65,0,0,1,.79-3.44,9.56,9.56,0,0,1,5-4.66,9,9,0,0,1,3.4-.67,6.82,6.82,0,0,1,5.52,2.58,8.05,8.05,0,0,1,1.47,2.82,12,12,0,0,1,.49,3.48V70.6c0,1.89,1,2.83,3.17,2.83h7.49a3.16,3.16,0,0,0,2.16-.77,2.75,2.75,0,0,0,.86-2.16V63.35c-.39-.76-.76-1.54-1.09-2.34"/><path class="mediacube-logo-1" d="M211.63,70.66a2.56,2.56,0,0,1-.77,2,2.94,2.94,0,0,1-2.1.72h-8.19a2.41,2.41,0,0,1-2.72-2.73V27.41a2.88,2.88,0,0,1,.72-2,2.52,2.52,0,0,1,2-.82h8.19a3,3,0,0,1,1.93.79,2.48,2.48,0,0,1,.94,2Z"/><path class="mediacube-logo-1" d="M301.16,58.69A3.32,3.32,0,0,1,303,58c.83,0,1.62.56,2.38,1.69l4,6.2a2.28,2.28,0,0,1,.44,1.34,2,2,0,0,1-.52,1.38,5.74,5.74,0,0,1-1.11,1A33.2,33.2,0,0,1,301.28,73a22.8,22.8,0,0,1-7.81,1.33,24.16,24.16,0,0,1-9.7-2,25.05,25.05,0,0,1,0-46.19,24.49,24.49,0,0,1,9.7-1.93,25.74,25.74,0,0,1,7.68,1.11,23.88,23.88,0,0,1,6.6,3.25A3.66,3.66,0,0,1,309,29.71a2.72,2.72,0,0,1,.49,1.66,3.08,3.08,0,0,1-.09.72,1.87,1.87,0,0,1-.35.67l-3.42,5.8A3.12,3.12,0,0,1,303,40.45a3.65,3.65,0,0,1-1.94-.8,15.23,15.23,0,0,0-3.54-1.83,11.92,11.92,0,0,0-4.14-.7,10,10,0,0,0-4.44,1,10.42,10.42,0,0,0-3.45,2.65,12.35,12.35,0,0,0-2.23,3.89,13.84,13.84,0,0,0-.8,4.64,13.66,13.66,0,0,0,.8,4.71,11.79,11.79,0,0,0,2.23,3.82,10.2,10.2,0,0,0,3.44,2.55,10.44,10.44,0,0,0,4.44.92,12.6,12.6,0,0,0,7.79-2.58"/><path class="mediacube-logo-1" d="M265.54,61.09a30.81,30.81,0,0,1,0-23.65h0a9.45,9.45,0,0,0,.75-3.67V27.84a2.82,2.82,0,0,0-1.2-2.42,3.78,3.78,0,0,0-2.19-.65h-5.09a5.41,5.41,0,0,0-1.39.15,2,2,0,0,0-.89.47,2.12,2.12,0,0,0-.54.91,13.37,13.37,0,0,0-.4,1.49c-.1.6-.22,1.19-.35,1.79s-.23,1.19-.3,1.78a19.12,19.12,0,0,0-2.15-2.8,14.45,14.45,0,0,0-2.8-2.33,13.65,13.65,0,0,0-3.65-1.61,16.55,16.55,0,0,0-4.63-.6A24,24,0,0,0,231,26a22.61,22.61,0,0,0-7.57,5.31,24,24,0,0,0-4.91,8,27.91,27.91,0,0,0-1.76,10,27.41,27.41,0,0,0,1.76,9.91,23.73,23.73,0,0,0,4.95,8A23.31,23.31,0,0,0,231,72.47a23.8,23.8,0,0,0,9.7,1.93H241a16.58,16.58,0,0,0,4.49-.54,13.32,13.32,0,0,0,3.35-1.44,11.5,11.5,0,0,0,2.5-2.06,21.91,21.91,0,0,0,2-2.45c0,.3.07.54.1.74s.07.37.1.52.06.33.08.52,0,.45.07.75.21.83.32,1.19a3.13,3.13,0,0,0,.52,1,2.24,2.24,0,0,0,.89.64,3.89,3.89,0,0,0,1.44.22h6.3a3.55,3.55,0,0,0,2.26-.77,2.57,2.57,0,0,0,1-2.11V64.5a8.55,8.55,0,0,0-.76-3.4h0m-13.48-6.82a11.43,11.43,0,0,1-2.25,3.87,10.23,10.23,0,0,1-3.57,2.55,11.68,11.68,0,0,1-4.69.92,11.17,11.17,0,0,1-4.61-.94,10.4,10.4,0,0,1-3.55-2.61,11.89,11.89,0,0,1-2.25-3.89,14.23,14.23,0,0,1-.79-4.81,14.49,14.49,0,0,1,.79-4.81,12,12,0,0,1,2.26-4,11,11,0,0,1,3.52-2.68,10.55,10.55,0,0,1,4.63-1,10.85,10.85,0,0,1,4.77,1,10.6,10.6,0,0,1,3.54,2.7,11.8,11.8,0,0,1,2.23,4,15.05,15.05,0,0,1,.77,4.81,14.4,14.4,0,0,1-.8,4.86"/><path class="mediacube-logo-1" d="M349.27,72.89A4.06,4.06,0,0,1,348,71.32a8.61,8.61,0,0,1-.72-2.2c-.17-.83-.37-1.67-.6-2.53-.76.86-1.58,1.73-2.48,2.63a19.64,19.64,0,0,1-3,2.43,15.84,15.84,0,0,1-3.6,1.76,13.72,13.72,0,0,1-4.39.66,21.17,21.17,0,0,1-8.13-1.46,16.14,16.14,0,0,1-5.88-4.07,17.36,17.36,0,0,1-3.57-6.2,24.36,24.36,0,0,1-1.21-7.86V27.7a2.77,2.77,0,0,1,.84-2.15,2.87,2.87,0,0,1,2-.77h8.14a2.73,2.73,0,0,1,2.18.72,3.28,3.28,0,0,1,.59,2.11V52.2a10.83,10.83,0,0,0,.59,3.67,7.76,7.76,0,0,0,1.71,2.78,8,8,0,0,0,2.71,1.79,9.23,9.23,0,0,0,3.52.64,9.35,9.35,0,0,0,3.27-.62,10.2,10.2,0,0,0,3.05-1.76A9.47,9.47,0,0,0,345.3,56a7.13,7.13,0,0,0,.87-3.48v-25c0-1.82,1-2.73,2.93-2.72h8a2.79,2.79,0,0,1,2.16.77,2.73,2.73,0,0,1,.72,2v43a2.65,2.65,0,0,1-3,3h-5.36a3.89,3.89,0,0,1-2.3-.59"/><path class="mediacube-logo-1" d="M177.29,8V29.21a17.9,17.9,0,0,0-4.88-3.54,14.52,14.52,0,0,0-6.72-1.52,22.34,22.34,0,0,0-9.35,2,22.92,22.92,0,0,0-7.41,5.35,24.58,24.58,0,0,0-4.86,8,27.53,27.53,0,0,0-1.74,9.84,27,27,0,0,0,1.76,9.77,25.24,25.24,0,0,0,4.88,8,22.87,22.87,0,0,0,7.37,5.38,21.58,21.58,0,0,0,9.14,2A16.13,16.13,0,0,0,173,72.8a17.22,17.22,0,0,0,5.56-4.71l.54,2.83a3.72,3.72,0,0,0,.67,1.44,2.63,2.63,0,0,0,1,.74,3.64,3.64,0,0,0,1.24.3c.45,0,.94,0,1.47,0h4.86a3,3,0,0,0,2.05-.87,2.89,2.89,0,0,0,.72-2.06l0-62.54a2.51,2.51,0,0,0-2.52-2.51h-8.75A2.52,2.52,0,0,0,177.29,8m.41,46.3a12.67,12.67,0,0,1-2.45,3.84,12.08,12.08,0,0,1-3.57,2.61,10,10,0,0,1-4.32,1,9.83,9.83,0,0,1-4.29-1,11.64,11.64,0,0,1-3.52-2.63,12.4,12.4,0,0,1-2.38-3.92,13.73,13.73,0,0,1,0-9.62,12.69,12.69,0,0,1,2.38-3.94,11.52,11.52,0,0,1,3.53-2.68,9.52,9.52,0,0,1,4.29-1,9.84,9.84,0,0,1,4.33,1,11.47,11.47,0,0,1,3.6,2.7,13.23,13.23,0,0,1,2.43,4,13.43,13.43,0,0,1,.89,4.91,12.23,12.23,0,0,1-.92,4.73"/><path class="mediacube-logo-1" d="M209.2,5.47h-8.91a2.44,2.44,0,0,0-2.44,2.44v8.9a2.44,2.44,0,0,0,2.44,2.44h8.91a2.44,2.44,0,0,0,2.44-2.44V7.91a2.44,2.44,0,0,0-2.44-2.44"/><path class="mediacube-logo-1" d="M411,61a30.49,30.49,0,0,1-2.29-11.83,31.17,31.17,0,0,1,2.16-11.54c.1-.26.22-.49.33-.74a23.8,23.8,0,0,0-3.73-5.45,22.78,22.78,0,0,0-7.41-5.35,22.35,22.35,0,0,0-9.35-2,15.74,15.74,0,0,0-3.57.4A16.47,16.47,0,0,0,384,25.58a16.05,16.05,0,0,0-2.7,1.61,14.36,14.36,0,0,0-2.18,2V8a2.51,2.51,0,0,0-2.52-2.51h-8.75A2.52,2.52,0,0,0,365.34,8V70.46a2.86,2.86,0,0,0,.72,2.05,3,3,0,0,0,2.06.87H373c.53,0,1,0,1.46,0a3.82,3.82,0,0,0,1.24-.29,2.77,2.77,0,0,0,1-.75,3.6,3.6,0,0,0,.67-1.43l.55-2.83a17.21,17.21,0,0,0,5.55,4.71,16.16,16.16,0,0,0,7.49,1.59,21.51,21.51,0,0,0,9.15-2A22.69,22.69,0,0,0,407.43,67a24.46,24.46,0,0,0,3.81-5.56c-.07-.15-.16-.3-.22-.46m-11.79-6.85A12.29,12.29,0,0,1,396.85,58a11.48,11.48,0,0,1-3.52,2.63,9.83,9.83,0,0,1-4.29,1,10,10,0,0,1-4.32-1,12.08,12.08,0,0,1-3.57-2.61,12.67,12.67,0,0,1-2.45-3.84,12.25,12.25,0,0,1-.92-4.74,13.26,13.26,0,0,1,.9-4.91,12.79,12.79,0,0,1,2.43-4,11.47,11.47,0,0,1,3.57-2.7,9.81,9.81,0,0,1,4.36-1,9.58,9.58,0,0,1,4.29,1,11.64,11.64,0,0,1,3.52,2.68,12.61,12.61,0,0,1,2.38,3.94,13.37,13.37,0,0,1,.87,4.84,13.16,13.16,0,0,1-.87,4.78"/><path class="mediacube-logo-1" d="M457.17,58.44h-8.73a2.45,2.45,0,0,0-2,1.06,9.9,9.9,0,0,1-2.78,2.55,9.67,9.67,0,0,1-5,1.41,10.33,10.33,0,0,1-3.48-.5,12.2,12.2,0,0,1-3.8-2.12,13.19,13.19,0,0,1-2.68-3.05,12.74,12.74,0,0,1-1.69-4l0,0h18.62a3.15,3.15,0,0,0,3.15-3.14V43.92s0,0,0,0H427.45l0,0A12.67,12.67,0,0,1,431.48,38a10.72,10.72,0,0,1,6.88-2.23A9.79,9.79,0,0,1,445,38.07a13,13,0,0,1,3.84,5.84V27.58a1.06,1.06,0,0,0-.63-1h0a24.12,24.12,0,0,0-9.88-2A23.41,23.41,0,0,0,420.85,32a24.4,24.4,0,0,0-5,8,27.24,27.24,0,0,0-1.76,9.81,26.5,26.5,0,0,0,1.78,9.76,24.75,24.75,0,0,0,5,8A23,23,0,0,0,428.5,73a24.25,24.25,0,0,0,24.83-3.17,23.08,23.08,0,0,0,4.86-5.32q.62-.94,1.14-1.89c1-1.86-.17-4.22-2.16-4.22"/><path class="mediacube-logo-2" d="M482.19,5.47h-7.71a20.29,20.29,0,0,0-20.3,20.29V50.62a3.14,3.14,0,0,0,3.14,3.15h24.86a20.3,20.3,0,0,0,20.31-20.29V25.77a20.3,20.3,0,0,0-20.3-20.3"/><path class="mediacube-logo-3" d="M488.19,28.56l-15.92-9.2a1.23,1.23,0,0,0-1.84,1.07V38.81a1.22,1.22,0,0,0,1.84,1.06l15.92-9.19a1.22,1.22,0,0,0,0-2.12"/></svg>