<svg fill="currentColor" xmlns="http://www.w3.org/2000/svg"  viewBox="0 0 48 48" width="24px" height="24px"><path d="M 24 4 C 22.125 4 20.528815 4.7571334 19.503906 5.9101562 C 18.478997 7.0631791 18 8.5416668 18 10 C 18 11.04642 18.34337 12.060382 18.861328 13 L 13.595703 13 C 11.096894 13 8.8980624 14.700577 8.2714844 17.119141 L 3.3457031 36.119141 C 2.4516112 39.566226 5.1087109 43 8.6699219 43 L 39.513672 43 C 42.998815 43 45.638588 39.708311 44.882812 36.306641 L 40.660156 17.306641 C 40.102422 14.798893 37.860416 13 35.291016 13 L 29.138672 13 C 29.65663 12.060382 30 11.04642 30 10 C 30 8.5416668 29.521003 7.0631791 28.496094 5.9101562 C 27.471185 4.7571334 25.875 4 24 4 z M 24 7 C 25.124999 7 25.778816 7.3678666 26.253906 7.9023438 C 26.728997 8.4368209 27 9.2083332 27 10 C 27 10.791667 26.728997 11.563179 26.253906 12.097656 C 25.778816 12.632133 25.124999 13 24 13 C 22.875001 13 22.221184 12.632133 21.746094 12.097656 C 21.271003 11.563179 21 10.791667 21 10 C 21 9.2083332 21.271003 8.4368209 21.746094 7.9023438 C 22.221184 7.3678666 22.875001 7 24 7 z M 13.595703 16 L 24 16 L 35.291016 16 C 36.471616 16 37.476156 16.804779 37.732422 17.957031 L 41.953125 36.957031 C 42.307349 38.55136 41.146529 40 39.513672 40 L 8.6699219 40 C 6.9971328 40 5.8281388 38.491962 6.2480469 36.873047 L 11.175781 17.873047 C 11.463203 16.763611 12.448512 16 13.595703 16 z M 23.976562 17.978516 A 1.50015 1.50015 0 0 0 22.5 19.5 L 22.5 20.226562 C 20.50407 20.796741 19 22.56853 19 24.732422 L 19 24.734375 C 19 27.348199 21.151754 29.5 23.765625 29.5 L 25.234375 29.5 C 26.226504 29.5 27 30.273496 27 31.265625 C 27 32.252155 26.235274 33.021038 25.248047 33.029297 L 23.408203 33.044922 C 22.762885 33.044922 22.242497 32.626351 22.064453 32.060547 A 1.50015 1.50015 0 1 0 19.203125 32.960938 C 19.66952 34.443086 20.979871 35.394155 22.5 35.744141 L 22.5 36.5 A 1.50015 1.50015 0 1 0 25.5 36.5 L 25.5 35.982422 C 27.988983 35.836086 30 33.784959 30 31.265625 C 30 28.651754 27.848246 26.5 25.234375 26.5 L 23.765625 26.5 C 22.773496 26.5 22 25.726504 22 24.734375 L 22 24.732422 C 22 23.750223 22.757851 22.981106 23.740234 22.966797 L 24.564453 22.955078 C 25.213384 22.955078 25.737616 23.378758 25.912109 23.949219 A 1.50015 1.50015 0 1 0 28.78125 23.072266 C 28.325873 21.583534 27.01795 20.628213 25.5 20.267578 L 25.5 19.5 A 1.50015 1.50015 0 0 0 23.976562 17.978516 z"/></svg>
