<svg xmlns="http://www.w3.org/2000/svg" xmlns:xlink="http://www.w3.org/1999/xlink" width="33" height="33" viewBox="0 0 33 33"><defs><style>.b{clip-path:url(#a);}.c{fill:none;}</style><clipPath id="a"><rect class="a" width="33" height="33" rx="4"/></clipPath></defs><g class="b"><path class="c" d="M0,0H33V33H0Z"/><path class="d" d="M27.5,2.75H11A2.758,2.758,0,0,0,8.25,5.5V22A2.758,2.758,0,0,0,11,24.75H27.5A2.758,2.758,0,0,0,30.25,22V5.5A2.758,2.758,0,0,0,27.5,2.75ZM24.75,9.625H20.625v7.563a3.438,3.438,0,1,1-3.437-3.437,3.365,3.365,0,0,1,2.063.7V6.875h5.5ZM5.5,8.25H2.75V27.5A2.758,2.758,0,0,0,5.5,30.25H24.75V27.5H5.5Z"/></g></svg>