<svg fill="currentColor" xmlns="http://www.w3.org/2000/svg"  viewBox="0 0 48 48" width="24px" height="24px"><path d="M 16 5 C 10.477 5 6 9.477 6 15 C 6 20.523 10.477 25 16 25 C 21.523 25 26 20.523 26 15 C 26 9.477 21.523 5 16 5 z M 34.470703 8.9863281 A 1.50015 1.50015 0 0 0 33.439453 9.4394531 L 29.439453 13.439453 A 1.50015 1.50015 0 0 0 29.439453 15.560547 L 33.439453 19.560547 A 1.50015 1.50015 0 1 0 35.560547 17.439453 L 34.121094 16 L 41.5 16 A 1.50015 1.50015 0 1 0 41.5 13 L 34.121094 13 L 35.560547 11.560547 A 1.50015 1.50015 0 0 0 34.470703 8.9863281 z M 14.154297 9 L 18.539062 9 C 19.091062 9 19.539062 9.447 19.539062 10 C 19.539062 10.553 19.091062 11 18.539062 11 L 15.003906 11 L 14.677734 13 L 16 13 C 18.206 13 20 14.794 20 17 C 20 19.168 18.111 21 15.875 21 C 13.558 21 12.449078 20.061125 12.330078 19.953125 C 11.920078 19.584125 11.888813 18.951016 12.257812 18.541016 C 12.621813 18.136016 13.241344 18.097125 13.652344 18.453125 C 13.706344 18.495125 14.376 19 15.875 19 C 17.007 19 18 18.065 18 17 C 18 15.897 17.103 15 16 15 L 13.5 15 C 13.207 15 12.928281 14.870484 12.738281 14.646484 C 12.548281 14.422484 12.466672 14.126891 12.513672 13.837891 L 13.167969 9.8378906 C 13.246969 9.3548906 13.664297 9 14.154297 9 z M 25.5 25 A 1.50015 1.50015 0 0 0 24 26.5 L 24 38.5 C 24 40.967501 26.032499 43 28.5 43 L 38.5 43 C 40.967501 43 43 40.967501 43 38.5 L 43 26.5 A 1.50015 1.50015 0 0 0 41.5 25 L 25.5 25 z M 27 28 L 40 28 L 40 38.5 C 40 39.346499 39.346499 40 38.5 40 L 28.5 40 C 27.653501 40 27 39.346499 27 38.5 L 27 28 z M 14.484375 28.984375 A 1.50015 1.50015 0 0 0 13.439453 31.560547 L 14.878906 33 L 7.5 33 A 1.50015 1.50015 0 1 0 7.5 36 L 14.878906 36 L 13.439453 37.439453 A 1.50015 1.50015 0 1 0 15.560547 39.560547 L 19.560547 35.560547 A 1.50015 1.50015 0 0 0 19.560547 33.439453 L 15.560547 29.439453 A 1.50015 1.50015 0 0 0 14.484375 28.984375 z M 31.5 30 A 1.50015 1.50015 0 1 0 31.5 33 L 35.5 33 A 1.50015 1.50015 0 1 0 35.5 30 L 31.5 30 z"/></svg>
