<?xml version="1.0" encoding="utf-8"?>
<!-- Generator: Adobe Illustrator 25.0.0, SVG Export Plug-In . SVG Version: 6.00 Build 0)  -->
<svg version="1.1" id="Слой_1" xmlns="http://www.w3.org/2000/svg" xmlns:xlink="http://www.w3.org/1999/xlink" x="0px" y="0px"
	 viewBox="0 0 24 24" xml:space="preserve">
<g>
	<rect width="24" height="24" fill="none"/>
</g>
<g>
	<path d="M21,18.9L4.4,2.3C4,1.9,3.4,1.9,3,2.3s-0.4,1,0,1.4l5,5V9c0,1.7-1.3,3-3,3v2h6v7l1,1l1-1v-7h0.3l6.3,6.3
		c0.2,0.2,0.5,0.3,0.7,0.3s0.5-0.1,0.7-0.3C21.4,19.9,21.4,19.3,21,18.9z"/>
	<path d="M19,14v-2c-1.7,0-3-1.3-3-3V4h1c0.5,0,1-0.5,1-1s-0.5-1-1-1H7C6.8,2,6.6,2.1,6.5,2.2L18.3,14H19z"/>
</g>
</svg>
