<svg xmlns="http://www.w3.org/2000/svg" xmlns:xlink="http://www.w3.org/1999/xlink" width="48" height="48" viewBox="0 0 48 48"><defs><style>.a,.c{fill:#4285f4;}.a{stroke:#707070;}.b{clip-path:url(#a);}.d{fill:none;}</style><clipPath id="a"><rect class="a" width="48" height="48"/></clipPath></defs><g class="b"><g transform="translate(-0.5 -0.053)"><path class="c" d="M38,14v5.98s-3.98.02-4,0V14H28s.02-3.98,0-4h6V4h4v6h6v4Zm-6,8V16H26V10H10a4.012,4.012,0,0,0-4,4V38a4.012,4.012,0,0,0,4,4H34a4.012,4.012,0,0,0,4-4V22ZM10,38l6-8,4,6,6-8,8,10Z"/><path class="d" d="M0,0H48V48H0Z"/></g></g></svg>