<svg xmlns="http://www.w3.org/2000/svg" xmlns:xlink="http://www.w3.org/1999/xlink" width="1224" height="556" viewBox="0 0 1224 556"><defs><style>.vidgum-a{fill:url(#a);}.vidgum-b{fill:#51bdfe;}.vidgum-c{fill:url(#b);}.vidgum-d{fill:url(#c);}</style><linearGradient id="a" x1="301.83" y1="413.81" x2="301.83" y2="90" gradientUnits="userSpaceOnUse"><stop offset="0" stop-color="#3193fe"/><stop offset="1" stop-color="#50bcfd"/></linearGradient><linearGradient id="b" x1="848.93" y1="496.75" x2="848.93" y2="191.74" gradientUnits="userSpaceOnUse"><stop offset="0" stop-color="#ff3744"/><stop offset="0.65" stop-color="#fe4d68"/><stop offset="1" stop-color="#fe5576"/></linearGradient><linearGradient id="c" x1="392.46" y1="426.58" x2="563.89" y2="266.72" gradientUnits="userSpaceOnUse"><stop offset="0.01" stop-color="#3396fe"/><stop offset="0.31" stop-color="#389cfe"/><stop offset="0.39" stop-color="#6588da"/><stop offset="0.5" stop-color="#9b71ad"/><stop offset="0.6" stop-color="#c65e8a"/><stop offset="0.69" stop-color="#e55071"/><stop offset="0.77" stop-color="#f84862"/><stop offset="0.82" stop-color="#ff455c"/><stop offset="0.89" stop-color="#ff4963"/><stop offset="0.99" stop-color="#ff5476"/><stop offset="1" stop-color="#f57"/></linearGradient></defs><title>vidgum logo</title><path class="vidgum-a" d="M462.67,90V219.67c-4.34-8.34-25.34-26-57.34-27-41.33-.34-66.66,30-66.66,30V196h-123L180,316,144,196H64l80,212h69.33l47.34-121.67V408H337V381.33c22.67,24.67,50.33,36.34,106,31.34s96.67-51,96.67-51V90ZM441.33,342.33c-31.58,8.92-48.66-9.08-51.33-31.08s5.64-52.37,39.67-50.92C457,261.5,465.85,285.69,466.33,299,467.13,321,459.33,336.33,441.33,342.33Z"/><ellipse class="vidgum-b" cx="299.5" cy="132.25" rx="43" ry="41.75"/><path class="vidgum-c" d="M1158.5,271.25c-.25-31.5-14.75-76.5-68.75-78.75S1014.5,223,1014.5,223s-16.75-30.75-57.75-31.25-60.25,28.5-60.25,28.5V196H813s.25,99.5,0,115.25S811.5,345.5,784.25,346s-27-33-27-33V196H676.5v22.5s-18.25-25.5-62.5-26c-44.93.23-70.09,41.24-74.16,48.43l-.06.12c-.08.17-.26.51-.53,1l.42,119.59.1.18c12.23,21.09,42.34,40.9,79.48,41.9s59.5-22.25,59.5-22.25V408s-3.5,18.25-37.75,27.25-74-16.5-74.75-16.5-15.75,60.5-15.75,60.5c51.5,25,120.75,20.5,154.75,3.5s45-70,45-70C792.75,415.5,813,385.5,813,385.5V408h83.5s.25-94.5,0-109.75,3.25-37.75,29.5-38.5,25.75,31.75,25.75,31.75V408h77s-.25-93.25,0-109.75,2.5-38,27.75-37.75,26,30.25,26,30.25V408h76S1158.75,302.75,1158.5,271.25ZM641.75,336.5a38,38,0,1,1,38.25-38A38.13,38.13,0,0,1,641.75,336.5Z"/><path class="vidgum-d" d="M578.75,316.5a355.78,355.78,0,0,1-39,45.35c-21.56,21.11-49.79,42.63-79,47.9-58.25,10.5-87.25-3.5-87.25-3.5l33.5-66c.68.24,1.35.47,2,.68h0c8.18,4.13,18.94,5.17,32.29,1.4.91-.3,1.8-.63,2.66-1,1.45-.34,2.26-.59,2.26-.59,53.47-25.23,88.16-89.32,93-98.67.27-.52.45-.86.53-1l.06-.12S579,315.75,578.75,316.5Z"/></svg>