<svg version="1.1" id="Capa_1" xmlns="http://www.w3.org/2000/svg" xmlns:xlink="http://www.w3.org/1999/xlink" x="0px" y="0px"
	 viewBox="0 0 512 512" style="enable-background:new 0 0 512 512;" xml:space="preserve">
<g>
	<g>
		<path class="st0" d="M440.2,71.8C393.8,25.5,332.2,0,266.7,0S139.6,25.5,93.3,71.8S21.5,179.8,21.5,245.3
			c0,41.5,10.5,82.3,30.4,118.4L0,512l148.3-51.9c36.1,19.9,76.9,30.4,118.4,30.4c65.5,0,127.1-25.5,173.4-71.8
			c46.3-46.3,71.8-107.9,71.8-173.4S486.5,118.2,440.2,71.8z M388,336.4l-28.3,28.3c-23.5,23.5-90-5.1-148.7-63.7
			c-58.6-58.6-87.2-125.2-63.7-148.7l28.3-28.3c5.9-5.9,15.4-5.9,21.2,0l35.4,35.4c5.9,5.9,5.9,15.4,0,21.2L211,201.9
			c20.6,43.5,55.6,78.5,99.1,99.1l21.2-21.2c5.9-5.9,15.4-5.9,21.2,0l35.4,35.4C393.8,321,393.8,330.5,388,336.4z"/>
	</g>
</g>
</svg>
