<svg xmlns="http://www.w3.org/2000/svg" xmlns:xlink="http://www.w3.org/1999/xlink" width="24" height="24" viewBox="0 0 24 24"><defs><style>.b{clip-path:url(#a);}.c{fill:none;}</style><clipPath id="a"><path class="a" d="M0,0H24V24H0Z" transform="translate(87 200)"/></clipPath></defs><g class="b" transform="translate(-87 -200)"><g transform="translate(87 200)"><path class="c" d="M0,0H24V24H0Z"/><path class="a" d="M12,2A10,10,0,1,0,22,12,10,10,0,0,0,12,2Zm0,18a8,8,0,0,1-8-8A7.9,7.9,0,0,1,5.69,7.1L16.9,18.31A7.9,7.9,0,0,1,12,20Zm6.31-3.1L7.1,5.69A7.9,7.9,0,0,1,12,4a8,8,0,0,1,8,8A7.9,7.9,0,0,1,18.31,16.9Z"/></g></g></svg>