<?xml version="1.0" encoding="utf-8"?>
<!-- Generator: Adobe Illustrator 21.1.0, SVG Export Plug-In . SVG Version: 6.00 Build 0)  -->
<svg version="1.1" id="Capa_1" xmlns="http://www.w3.org/2000/svg" xmlns:xlink="http://www.w3.org/1999/xlink" x="0px" y="0px"
	 viewBox="0 0 512 512" style="enable-background:new 0 0 512 512;" xml:space="preserve">
<path class="st0" d="M429,112.4c0,0-33.4-35.3-109.2-40.5v11.2c0,0,41.6-2.4,93,48.2C374,103.4,318.6,85.8,257,85.8
	s-117,17.5-155.8,45.5c51.5-50.7,93-48.2,93-48.2V71.9C118.5,77,85.1,112.4,85.1,112.4c-57.8,74.4-61,237.2-61,237.2
	c54.4,65.6,122.8,57.2,122.8,57.2l25.1-36.3c-32.4-8.8-55.5-28.9-69.4-44.5c38.8,27.4,93.6,44.5,154.5,44.5s115.7-17.1,154.5-44.5
	c-13.9,15.7-37,35.8-69.4,44.5l25.1,36.3c0,0,68.4,8.4,122.8-57.2C490,349.5,486.7,186.8,429,112.4z M184.5,303.5
	c-21.8,0-39.5-18.8-39.5-42c0-23.2,17.7-42,39.5-42s39.5,18.8,39.5,42S206.3,303.5,184.5,303.5z M329.6,303.5
	c-21.8,0-39.5-18.8-39.5-42c0-23.2,17.7-42,39.5-42s39.5,18.8,39.5,42S351.4,303.5,329.6,303.5z"/>
</svg>
