<svg version="1.1" id="layer" xmlns="http://www.w3.org/2000/svg" xmlns:xlink="http://www.w3.org/1999/xlink" x="0px" y="0px"
	 viewBox="0 0 652 652" style="enable-background:new 0 0 652 652;" xml:space="preserve">
<g>
	<path class="st0" d="M534.5,241.2c6.9-0.2,13.9-6.7,17.1-12.2l0.1-0.2c3.4-6.1,3.3-16.5-5.5-17.6c-4.4-0.6-9.4,2.5-12.4,5.4
		c-3.9,3.9-7.5,10.3-7.4,15.9C526.6,237.3,529.5,241.4,534.5,241.2"/>
	<path class="st0" d="M237,278c6.9-0.2,13.9-6.7,17.1-12.2l0.1-0.2c3.4-6.1,3.3-16.5-5.5-17.6c-4.4-0.6-9.4,2.5-12.4,5.4
		c-3.9,3.9-7.5,10.3-7.4,15.9C229,274.1,231.9,278.2,237,278"/>
</g>
<g>
	<path class="st0" d="M450.6,367L450.6,367l-6.2-0.4c-16.4,0-34.4,0.1-50.7,1.2c-9.1,0.6-18.2,1.2-27.3,1.9
		c-7.5,0.5-15,1.1-22.5,1.9c-12.9,1.2-25.8,2.8-38.6,4.6c-33.4,4.8-68.4,9.2-100.2,20.7c-8.1,2.9-16,6.6-22.9,11.8
		c-16,11.9-26.8,31.2-28.6,51l-0.1,4.4c2-4.3,6.5-7.2,10.4-9.9c15.2-10.7,32.4-18.6,49.7-25.4c24.1-9.5,48.6-17.9,73.6-24.8
		c35.4-9.6,71.4-17.4,107.7-23.1c10.6-1.7,44.7-6.4,51.2-7c3-0.3,6.3-0.7,9.2-0.9L450.6,367"/>
	<path class="st0" d="M101.8,436.5c-47.6,8.9-59.1-42.2-42-70.8c10.4-17.3,33.5-29.6,51.8-39.5c11.9-6.4,31.9-12.4,27.5-28.9
		c-7.6,1.2-15.6-1.4-17.1-2c-39.5-14.5-38.4-59.9-15.8-78.5c21.5-17.7,64-17.3,67.4,21.6c0.2,1.8,0.1,8.6-0.9,17.6
		c10.6-2.3,17.5-9.9,20.5-19.1c1.9-5.7,2.3-12,1.2-18c-3.4-18.3-18.1-30-35.4-34.8c-22.9-6.3-48.5-2.7-68.7,14
		c-8.1,6.7-18.1,18.5-21.9,28.5c-6.2,16.5-9.3,31,0.6,54c5.1,11.7,12.4,19.2,25.3,28.3c-11,3.3-28.3,13.3-32.5,15.9
		C7.8,358.4,6.8,446.4,62.6,465.5c27.8,9.5,67.5,1.6,83-29.9c4.5-9.1,8.1-27.1,4.8-37.1C137,418.5,122.3,432.7,101.8,436.5"/>
</g>
<g>
	<path class="st0" d="M615.9,318.4c-3.5,0.3-4.8,4.3-5.5,7.2c-1,4.1-1.9,8.2-3,12.2l-0.9,3.4c-14.1-1.9-24.1,13.6-25.2,27.1
		l-5.4,2.7c-3.9,1.1-1.7-5.4-0.5-9.3c1.4-4.3,3.4-11.1,2.3-14.1c-1.8-5.1-10.5-2.1-14.5,1.1l0.6-2.4c-3,0.4-7.3,0.9-10.2,1.3
		c-2.2,8.2-3.7,15.3-5.9,23.6c-3.8,4-8.7,8.2-10.3,4c-0.3-0.8,4.7-20,6.5-26.2c-3.3,0.4-6.1,0.5-9.4,0.9c-1.2,6.3-2.8,11.3-4.7,18.3
		c-0.9,3.3-3.2,11.4-7.4,9.9c-3.2-1.2,1.9-17.8,4.3-27.2c-3.2,0.4-6.5,0.9-9.6,1.3l-3.4,13.5c-0.9,1.5-4.6,5.4-6.8,4.3
		c0.3-3,0.5-4.6,0.4-5.8c-0.3-3-0.8-4.2-1.8-6.2c-2-3.9-6.1-4.8-10.2-3.8c-10.1,2.6-19.4,16.2-19,28.1c0.2,6.2,4.1,9.4,10.5,9.7
		c5.6,0.2,10.8-2.4,14.1-6.8c1.3-1.7,2.1-2.6,4-5.4c1.7-2.5,4.7-3.6,6.8-6c-0.5,2.6-1.2,7.6-0.3,9.8c2.6,5.9,11.7,4.5,15.9,1.5
		l4.5-3.1c2.5,6.1,10.5,1.2,13.8-2.6l-0.5,3.7c3.1-0.4,6.2-0.7,9.3-1.1l1.3-5.2c0.4-1.9,2.9-13.2,4.8-16.4c1.1-1.8,3.6-5.5,6-5.3
		c2.8,0.2,1.2,7,0.9,8.5c-1.1,5-5.5,17.3,4.2,17.4c5.2,0.1,7.8-3.4,10.8-7.5c0.9,3,2.7,5.6,7.2,5.6c3.8,0,7.5-2.3,10.5-5.1
		c-0.4,2-0.6,2.6-0.6,2.6s4.8-0.2,7.3-0.5l14.2-57.4L615.9,318.4 M498.7,372.5c-0.7,2.6-2.4,5-4.1,6.8c-2.1,2.3-6,4-8.4,1
		c-3.2-4.2,1.7-12.1,5.1-14.8c2.4-1.9,5.7-1.8,7,1.1C499.3,368.5,499.3,370.5,498.7,372.5 M600.2,365.8c-1.8,1.3-4.5,3.9-7.4,3.4
		c-6.1-1,3.9-22.5,11.1-17.7C602.6,356.5,601.9,358.9,600.2,365.8"/>
	<path class="st0" d="M169,299.5l2.4-7c-3.2,0.4-20,2.5-20,2.5s-39.1,111.8-40.8,118.5c9.3,0.4,19.4-1.6,22.7-10.4
		c10.5-27.7,15.3-46,26.3-73.4c2.2-5.5,5.4-11.4,10.9-14.4c3.7-2,7.8-0.6,9.5,3.2c3.7,8.3-3,19.7-7.7,26.2
		c-6,8.4-19.7,18.2-17.5,29.7c0.6,3.2,1.8,2,4.3,1.1c18.2-6.8,31.1-1.5,43.9-10.4l5.3-4.8l0.8,1.5c2.3,4.4,9.7,5.7,13,5.7
		c9.3,0,20.7-5.8,25.2-14.1l1.3-2.4l0.9,2.5c2.6,6.9,10.4,8.9,14.3,8.9c8,0,15.8-5,20.4-11l1.2-1.6l0.9,1.7
		c2.3,4.6,9.2,6.9,14.4,6.4c7.4-0.7,12.2-4,17.3-8c2.9-2.3,7.3-8,7.3-8l1.9-2.6c0,0,2,2.9,5.3,6.2c9.5,9.4,29.7,6.9,44.3-0.4
		c10.4-5.2,18.1-12.8,18.1-12.8l-3.1,12.6l17.7-2.2c0.7-2.6,7.2-29.7,11.8-43c4.4-12.8,10.3-21,16.9-17.7c3.3,1.6,1.7,8,0.2,15.6
		c-1.5,7.8-10.2,41-10.7,42.9l18.9-2.3c3.1-10.6,5.2-21.9,8.5-32.5c2.6-8.3,5.9-22.7,14.2-27.1c4.4-2.3,8.8-0.7,8.9,3.7
		c0.1,5.8-1.9,14.3-4.2,21.4c-2.3,7.1-4.6,14.4-4.5,20.5c0.1,7.5,6,11.7,13,11.7c8.7-0.1,18.8-6.6,23.9-12.3l1.3-1.5
		c0,0,6.6,9.9,19.5,8.4c13.1-1.6,20.9-9.4,27.5-20.3l1.1,1.5c8.2,9.8,21.8,13.2,34.7,8.6c19.6-7.1,22.5-27.3,19.1-35.6
		c-11.8,17.8-24.5,20.4-33.4,15.3c-15.4-8.8-9.1-33.1,3.5-41.5c3.1-2,10.4-3,13,0.7l2.2,4.7c2.2,1.5,6.1,0.5,7.8-0.6
		c3.8-2.7,4.8-10.7,3.6-14.7c-2.9-9.6-12.9-12.2-21.6-10.4c-10.6,2.2-19,9.1-24.9,18.1c-6.4,9.7-10.7,21.6-10.9,33.2
		c-0.1,2.9,0.1,5.8,0.7,8.6l-1.1,1.8c-3.3,4.8-9.5,10.1-15.6,10.1l-4.9-1.5c-0.1-1.5,2.4-11,3.7-16.1c3.9-14.9,7.4-28.7,11.3-45.3
		l-18.6,2.3c-4.4,14.8-7.1,28.5-11,44.7l-2.3,9.3c-2.5,3.4-9,11-15.8,11.3c-9.4,0.4-1.2-19.5-0.2-23.4c2.6-9.7,5.1-20.9,2.6-30.9
		c-1.3-5-4.9-8.7-10.4-8.7c-12.5,0-20.6,8.5-26.4,18.2l-2.1,3.5l-0.1-4c-0.2-8.4-5-12.6-11-12.8c-10.6-0.3-20.2,15.2-20.2,15.2
		l2.6-10.9l-17.7,2.2c-4.7,15.3-7,29.7-11.8,44.1c0,0-3.7,10.4-15.5,19.6c-9.9,7.7-40.3,17.3-39.1-5c0,0,9.7-1.8,15.5-3.1
		c27-6.2,32.4-19.7,31.6-35.5c-0.3-4.7-4.4-20.2-22.9-17c-25.7,4.3-41.7,27-44.7,57.6c-3.7,6.8-9.7,14.1-15.1,13.9
		c-1.9-0.1-3.6-0.3-5.1-2.2l21.4-85.9c0,0,146.4-8.1,180.8-42.8c8.2-8.2,9.9-20.3,9.9-31.2c-68.8,35.3-147,55.4-189.5,59.1
		c1.7-36.8-22.4-49.5-45.4-45.9c-12.6,1.9-22.9,11.5-25.2,24.9c-2.6,14.9,3.3,24.2,18.5,30.9c16.2,7.1,33.6,5.8,33.6,5.8
		c-1.9,11.9-6.3,28.2-6.3,28.2c-2.7-1.8-8-2.5-9.9-2.5c-23.2,0-39.6,24.8-44.5,61.1l-0.2,0.4c-2.1,2.9-7.7,9.1-14.8,9.8
		c-3.5,0.3-5.4-1.5-5.4-1.5s2.9-11.1,4.2-16.1c3.9-14.9,7.7-29.3,11.5-46l-17.9,2.2c-2.8,11-5.4,22.6-8.3,33.6
		c-2.3,8.9-4.4,19.7-10.2,27c-3.2,4.1-7.7,6.8-12.7,8.3c-2.2,0.6-14,0.8-14.9,2.5c1.3-2.5,3.6-4.4,5.5-6.4c2.4-2.5,4.7-5.1,6.8-7.9
		c4.6-6.2,8-13.3,10.4-20.6c4.5-13.7,3.1-26.7-4.4-31.3C184.3,282.4,169,299.5,169,299.5 M357,290.9c3.4-2.9,9.6-6.6,13.9-3.6
		l0.1,0.1c4.2,3,1.7,8.6-0.7,11.9c-5.3,7.5-22.7,10.3-22.7,10.3S350.3,296.7,357,290.9 M292,233.4c-4.2-0.9-8.6-2.2-12.3-4.5
		l-3.5-2.8c-7.2-7.2-4-19.2,6.8-21.6c9.8-2.1,18.8,2.9,23.9,11.6c3.9,6.6,4.7,12.7,4.6,18.3C305.7,235.4,293.9,233.8,292,233.4
		 M279.3,302.5c4.6-4.1,10.9-7,18.3-4.9c-5.7,24.3-8.4,34.9-15.1,40.2c-5.7,4.5-10.6,3.4-13.1-0.8
		C263.6,326.9,271.4,309.4,279.3,302.5"/>
	<path class="st0" d="M475.5,348.9c-12.7-10.9-30.2,0.4-30.5,12.8c-0.1,4.1,1.7,7.7,4.9,10.3c2.8,2.3,6.1,4,8.5,6.6l1.6,2.3
		c6.2,12.9-18.2,21.6-21.5,6.1c-5,6.6-3,13.8,3.8,17.4c22.2,11.9,39.2-17,26.3-31.6l-0.1-0.2l0.2-0.1
		C482.3,369,481.8,354.3,475.5,348.9 M470.2,362.7l-0.1,0.1c-1.1,1.6-2.5,3.1-4.4,3.9l-2.7,0.9l-2-1.5c-3-2.6-5.7-7.3-2.6-10.9
		l2.8-2.1c3-1.2,7-0.7,9,2.1l1.2,2.8L470.2,362.7"/>
</g>
</svg>
