<svg version="1.1" id="Layer_1" xmlns="http://www.w3.org/2000/svg" xmlns:xlink="http://www.w3.org/1999/xlink" x="0px" y="0px"
	 viewBox="0 0 1024 1024" style="enable-background:new 0 0 1024 1024;" xml:space="preserve">
<g>
	<path class="st0" d="M361.4,120.1c-2.9,1.7-5.6,3.5-8.6,5C239.4,190.2,166.1,285.5,139,413.8c-19.6,93-10.2,184,27.7,272
		c25.9,59.9,57.1,115.5,103.5,162.3c73.2,74,162.1,117.8,263.6,137c55.7,10.6,111.6,13.6,167.9,7.9c27.5-2.7,54.6-8.3,85.1-13.1
		c-5.8,2.9-9.2,4.8-12.7,6.3c-49,20.4-100.1,32.1-153.3,35.9c-99.5,6.9-196.7-2.9-287.4-46.5C176.2,900,79,776.5,45.2,604.9
		c-13.3-67.4-15-135.4,5.6-201.9c27.7-89.5,83-159.1,159.6-212.5c43.6-30.2,91.1-53,141.4-69.7c2.9-0.8,5.8-1.7,8.6-2.5
		C360.9,118.9,361.2,119.5,361.4,120.1z"/>
	<path class="st0" d="M89,278.9c5.6-10.2,10.2-19.8,15.6-28.8C184.3,117.8,300,36.9,451.7,9.2C562.2-11.1,669,1.3,768.9,55.1
		C874,111.6,946.6,195.9,976.2,312.7c39,153.9-23.8,313.9-156.2,405.3c-32.5,22.3-67.4,39.8-104.7,52.8c-3.3,1.3-6.9,2.1-11.3,1.3
		c2.9-1.9,5.6-3.8,8.6-5.6C821.1,696.8,884.9,596.5,913,472.4c5-21.9,7.5-44.6,8.3-67c3.1-79.3-24.8-147.9-77.2-206.3
		C783.3,131,706.1,92,616,79.1c-128.9-18.4-251.7-0.4-366.7,63c-59.4,33-110.1,76.1-151.6,130.1c-1.7,2.3-3.5,4.4-5.4,6.5
		C91.9,278.4,91.3,278.4,89,278.9z"/>
	<path class="st0" d="M498.8,634.7c-16.5-6-33-11.3-48.8-18.1c-60.5-26.1-110.1-64.7-139.1-125.4c-18.8-39.2-26.3-80.5-17.1-123.5
		c2.3-11.3,7.3-22.7,14-31.9c48-65.5,113.5-102.6,193.6-114.1c65.3-9.4,128.7-1.5,189.4,25c28.4,12.5,53.2,30,74,53
		c2.5,2.7,4.6,5.6,8.1,10c-15.2-6-27.7-12.9-41.3-16.3c-86.3-21.5-163.1-1.9-228.8,57.4c-27.1,24.4-40.7,57.8-46.3,93.6
		c-7.3,46.1-6.7,92.4,11.5,136.2C475.7,599,488,615.7,498.8,634.7z"/>
	<path class="st0" d="M270,409.2c3.8,18.8,6,37.1,11.3,54.6c21.7,74,71.3,124.1,138.3,158.5c49.6,25.7,102.8,38.8,157.9,46.1
		c36.3,4.8,72.6,6.7,108.9,0c63.4-11.7,117.4-41.1,162.1-87.6c2.3-2.5,4-5.4,6-8.3c0.8,0.6,1.9,1.5,2.7,2.1c-1.3,2.9-2.3,6-3.8,9
		c-60.3,118.1-155.2,189.8-287,208.2c-73.4,10.2-140.6-12.1-199-56.9c-74.7-57.1-112.2-134.1-114.5-228.2
		C252.1,474.1,260.2,429.7,270,409.2z"/>
	<path class="st0" d="M477.1,476.6c10.4,0,19.6-0.2,29,0c22.5,0.4,44.4-1.9,65.1-10.8c35.5-15.6,57.6-53,52.1-88.9
		c-3.5-22.5-17.5-37.1-37.1-47.1c-1.5-0.8-3.1-1.3-4.8-2.1c-1.5-0.6-3.1-1.5-4.8-2.3c0.6-1,1-2.5,1.7-2.7
		c53.2-21.7,107.2-28.6,162.1-6.7c10.8,4.4,21.3,10.6,30.5,17.7c38.8,30,50.1,68.4,33.8,114.7c-12.1,34.8-34.6,61.9-65.5,81.1
		c-64.2,39.8-131.4,42.3-199.8,12.1c-25.2-11.1-44-30-57.1-54.4C480.2,484.3,478.8,480.8,477.1,476.6z"/>
	<path class="st0" d="M286.9,836.8c102,73,215.2,100.5,338.9,87.8c123.3-12.7,228.8-64,319.7-151.2c0.4,8.8,2.5,17.9,1,26.5
		c-8.3,52.8-34.4,95.1-79.5,123.9c-43.4,27.7-92.6,40.7-143.1,47.3c-89.1,11.9-176.7,4.4-262-24.6
		c-63.4-21.7-119.3-55.5-167.9-101.8C291.7,842.2,289.4,839.3,286.9,836.8z"/>
</g>
</svg>
