<svg version="1.1" id="Capa_1" xmlns="http://www.w3.org/2000/svg" xmlns:xlink="http://www.w3.org/1999/xlink" x="0px" y="0px"
	 viewBox="0 0 512.5 512.5" style="enable-background:new 0 0 512.5 512.5;" xml:space="preserve">
<g>
	<path class="st0" d="M256.2,277.3c76.6,0,138.7-62.1,138.7-138.7S332.8,0,256.2,0S117.6,62.1,117.6,138.7
		C117.7,215.2,179.7,277.2,256.2,277.3z M256.2,76.4c34.4,0,62.3,27.9,62.3,62.3s-27.9,62.3-62.3,62.3S194,173.1,194,138.7
		S221.8,76.4,256.2,76.4z"/>
	<path class="st0" d="M392.1,343c15.1-9.9,24.1-26.8,24.2-44.8c0.2-15-8.2-28.7-21.7-35.3c-13.8-6.9-30.4-5.4-42.7,4
		c-57,41.5-134.3,41.5-191.3,0c-12.3-9.3-28.8-10.9-42.7-4c-13.4,6.6-21.9,20.3-21.7,35.3c0,18,9.1,34.9,24.2,44.8
		c19.3,12.9,40.4,22.9,62.5,29.9c3.8,1.2,7.6,2.2,11.6,3.2l-64.5,63c-16.9,16.4-17.3,43.4-0.9,60.3c16.4,16.9,43.4,17.3,60.3,0.9
		c0.4-0.3,0.7-0.7,1-1l65.7-68l65.8,68.1c16.4,16.9,43.4,17.4,60.3,1c16.9-16.4,17.4-43.4,1-60.3c-0.3-0.4-0.7-0.7-1-1l-64.4-63
		c4-1,7.9-2.1,11.7-3.3C351.7,365.9,372.8,355.9,392.1,343z"/>
</g>
</svg>
