<svg version="1.1"
	 id="svg3121" inkscape:version="0.92.0 r15299" sodipodi:docname="payoneer.svg" xmlns:cc="http://creativecommons.org/ns#" xmlns:dc="http://purl.org/dc/elements/1.1/" xmlns:inkscape="http://www.inkscape.org/namespaces/inkscape" xmlns:rdf="http://www.w3.org/1999/02/22-rdf-syntax-ns#" xmlns:sodipodi="http://sodipodi.sourceforge.net/DTD/sodipodi-0.dtd" xmlns:svg="http://www.w3.org/2000/svg"
	 xmlns="http://www.w3.org/2000/svg" xmlns:xlink="http://www.w3.org/1999/xlink" x="0px" y="0px" viewBox="0 0 79.9 70.2"
	 style="enable-background:new 0 0 79.9 70.2;" xml:space="preserve">
<sodipodi:namedview  bordercolor="#666666" borderopacity="1.0" fit-margin-bottom="0" fit-margin-left="0" fit-margin-right="0" fit-margin-top="0" id="base" inkscape:current-layer="layer1" inkscape:cx="99.156203" inkscape:cy="34.594792" inkscape:document-units="mm" inkscape:pageopacity="0.0" inkscape:pageshadow="2" inkscape:window-height="744" inkscape:window-maximized="1" inkscape:window-width="1280" inkscape:window-x="-4" inkscape:window-y="-4" inkscape:zoom="4.0441242" pagecolor="#ffffff" showgrid="false" units="px">
	</sodipodi:namedview>
<g id="layer1" transform="translate(-53.895874,-165.87389)" inkscape:groupmode="layer" inkscape:label="Layer 1">
	<g id="g3187" transform="translate(0.13229185,-0.13228321)">
		<g id="g2666" transform="matrix(0.35277777,0,0,-0.35277777,67.246115,167.62408)">
			<path id="path2668" inkscape:connector-curvature="0" class="st0" d="M-18-12.7c0.7-15.7,14.2-75.5,14.2-75.5c5-12.1,9.3,0,9.3,0
				c16.4,49.1-17.1,77.6-17.1,77.6C-20.2-5.6-18-12.7-18-12.7 M176.4-4.2c0,0,16.4-11.4,0-13.5c0,0-61.3-7.1-106.8-49.9
				c0,0-68.4-59.8-94-125.4c0,0-8.5,0-5.7,12.8C-27.3-167.3-10.2-111,66-42C66-42,139.4,25,176.4-4.2"/>
		</g>
	</g>
</g>
</svg>
