<svg version="1.1" id="Слой_1" xmlns="http://www.w3.org/2000/svg" xmlns:xlink="http://www.w3.org/1999/xlink" x="0px" y="0px"
	 viewBox="0 0 43 43" style="enable-background:new 0 0 43 43;" xml:space="preserve">
<path class="st0" d="M34.8,28.3c0.1,0.8-0.1,1.1-0.4,1.1c-0.3,0-0.6-0.3-1-1c-0.4-0.6-0.6-1.4-0.3-1.7c0.1-0.2,0.4-0.3,0.8-0.2
	C34.5,26.8,34.8,27.8,34.8,28.3z M31.1,30c0.8,0.7,1.1,1.5,0.6,2.1c-0.2,0.3-0.6,0.5-1.1,0.5c-0.5,0-0.9-0.2-1.3-0.5
	c-0.7-0.6-1-1.7-0.5-2.3c0.2-0.2,0.5-0.4,0.9-0.4C30.2,29.5,30.7,29.7,31.1,30z M29.7,36.7c3.5,0,7.4,1.2,11.6,5
	c0.4,0.4,1-0.1,0.6-0.6c-4.2-5.3-8-6.3-11.8-7.1c-4.7-1-7.1-3.7-8.8-6.6c-0.3-0.6-0.5-0.5-0.5,0.3c0,0.9,0,2.1,0.2,3.3l0,0
	c-0.2,0-0.4,0-0.6,0c-6.7,0-12.2-5.5-12.2-12.2S13.7,6.7,20.4,6.7s12.2,5.5,12.2,12.2c0,0.5,0,1-0.1,1.4c-0.9-0.2-2.6-0.2-3.9-0.1
	c-0.5,0-0.4,0.3-0.1,0.3c4,0.7,6.8,3.2,7.4,7.8c0,0.1,0.2,0.1,0.2,0.1c1.7-2.8,2.6-6,2.6-9.4c0-10.2-8.2-18.4-18.4-18.4
	S2,8.7,2,18.9s8.2,18.4,18.4,18.4C23.1,37.3,25.8,36.7,29.7,36.7z"/>
</svg>
