<svg version="1.1" id="Capa_1" xmlns="http://www.w3.org/2000/svg" xmlns:xlink="http://www.w3.org/1999/xlink" x="0px" y="0px"
	 viewBox="0 0 512 512" style="enable-background:new 0 0 512 512;" xml:space="preserve">
<g>
	<path class="st0" d="M352,141.5c0,26.5,21.5,48,48,48c26.5,0,48-21.5,48-48s-21.5-48-48-48C373.5,93.5,352,115,352,141.5z
		 M479.2,62.3c-43.7-43.7-114.7-43.7-158.4,0c-17.8,17.8-28.3,40.1-31.7,63.2l0,0L186.8,280.6c-13.8,0.7-27.4,4.2-40,10.5
		l-78.9-61.7c-18.3-14.3-44.7-11.1-59,7.2c-14.3,18.3-11.1,44.7,7.2,59l78,60.9c-8.5,33.4,0.3,70.3,26.5,96.4
		c39.5,39.5,103.4,39.5,142.9,0c24.2-24.2,33.6-57.7,28-89.1L416,252.3l0,0c23.1-3.3,45.4-13.9,63.2-31.7
		C522.9,176.9,522.9,106,479.2,62.3z M192,448.8c-37.2,0-67.3-30.1-67.3-67.3c0-0.4,0-0.7,0-1.1l33.5,26.2c7.7,6,16.8,8.9,25.8,8.9
		c12.5,0,24.8-5.5,33.1-16.1c14.3-18.3,11.1-44.7-7.2-59l-31.8-24.8c4.5-0.9,9.1-1.4,13.9-1.4c37.2,0,67.4,30.2,67.4,67.4
		C259.4,418.7,229.2,448.8,192,448.8z M400,221.5c-44.2,0-80-35.8-80-80s35.8-80,80-80c44.2,0,80,35.8,80,80S444.2,221.5,400,221.5z
		"/>
</g>
</svg>
