<svg version="1.1" id="Слой_1" xmlns="http://www.w3.org/2000/svg" xmlns:xlink="http://www.w3.org/1999/xlink" x="0px" y="0px"
	 viewBox="0 0 43 43" style="enable-background:new 0 0 43 43;" xml:space="preserve">
<path id="Combined-Shape" class="st0" d="M21.1,1c3.2,0,6.3,0.7,9.1,2.1c0.4,0.2,0.9,0.4,1.3,0.7l-1.9,1.7l-2.8-2.9l-4.9,4.3L19,3.7
	l-9,8l5.8,6.3l-2.3,2l5.7,6.3l-2.3,2l8.1,9l4.8-4.4l4.2,4.7c-0.8,0.6-1.7,1.3-2.7,1.8c-3,1.7-6.5,2.7-10.2,2.7
	c-11.4,0-20.7-9.2-20.7-20.5C0.4,10.2,9.7,1,21.1,1z M17.3,20.2l4.9-4.4l4.4,4.9l-4.9,4.4L17.3,20.2z M20.8,28.6l4.9-4.4l4.5,4.9
	l-4.9,4.4L20.8,28.6z M13.8,11.9l4.9-4.4l4.4,4.9l-4.9,4.4L13.8,11.9z M22.9,9.5l3.7-3.3l3.3,3.6l-3.7,3.3L22.9,9.5z M29.4,24.6
	l3.7-3.3l3.3,3.7l-3.7,3.3L29.4,24.6z M32.7,32l3.7-3.3l3.3,3.6L36,35.6L32.7,32z M34.2,15.1l2.5-2.2l2.2,2.4l-2.5,2.2L34.2,15.1z
	 M31,7.8l2.5-2.2l2.2,2.5l-2.5,2.2L31,7.8z M37.3,22.3l2.5-2.2l2.3,2.4l-2.5,2.2L37.3,22.3z M26.3,16.9l3.7-3.3l3.3,3.6l-3.7,3.3
	L26.3,16.9z"/>
</svg>
