<svg version="1.1" id="Слой_1" xmlns="http://www.w3.org/2000/svg" xmlns:xlink="http://www.w3.org/1999/xlink" x="0px" y="0px"
	 viewBox="0 0 43 43" style="enable-background:new 0 0 43 43;" xml:space="preserve">
<g>
	<path d="M6,20.8c0-2.4,0.2-3.9,5.1-7.5c4-3,17-13.3,17-13.3v17.2H38V42H9.1C7.4,42,6,40.6,6,38.9V20.8z"/>
	<g>
		<g>
			<polygon points="28.1,17.2 28.1,27.2 10,39.6 32.9,32.1 32.9,17.2 			"/>
			<path fill="#000000" d="M19.8,16.7c1.1-1.3,2.6-1.7,3.5-1c0.8,0.7,0.7,2.3-0.4,3.6c-1.1,1.3-2.6,1.7-3.5,1C18.6,19.6,18.7,18,19.8,16.7"/>
		</g>
	</g>
</g>
</svg>
